<svg xmlns="http://www.w3.org/2000/svg" version="1.1" xmlns:xlink="http://www.w3.org/1999/xlink" xmlns:svgjs="http://svgjs.dev/svgjs" width="1440" height="560" preserveAspectRatio="none" viewBox="0 0 1440 560"><g mask="url(&quot;#SvgjsMask1001&quot;)" fill="none"><rect width="1440" height="560" x="0" y="0" fill="rgba(0, 157, 255, 1)"></rect><path d="M0,654.78C122.751,647.713,171.311,488.924,258.494,402.225C324.835,336.253,409.248,289.682,451.221,206.066C494.116,120.613,504.939,23.871,496.214,-71.345C487.154,-170.226,447.754,-259.717,400.537,-347.067C341.865,-455.607,304.194,-598.918,188.24,-641.086C72.668,-683.115,-53.999,-610.494,-161.973,-551.63C-255.034,-500.896,-310.282,-409.075,-381.434,-330.515C-454.474,-249.87,-545.13,-185.256,-585.36,-84.162C-632.254,33.677,-691.619,177.225,-626.891,286.291C-561.22,396.945,-389.286,367.927,-278.357,433.132C-173.992,494.478,-120.86,661.738,0,654.78" fill="#007ecc"></path><path d="M1440 1006.874C1535.804 1006.427 1631.18 1030.034 1721.452 997.948 1826.362 960.659 1937.961 909.588 1990.257 811.294 2043.225 711.738 2031.7179999999998 587.221 1997.0729999999999 479.905 1965.246 381.31899999999996 1873.325 321.58500000000004 1806.585 242.35199999999998 1738.681 161.738 1703.001 38.37800000000004 1601.433 10.20799999999997 1499.849-17.966000000000008 1404.777 66.78199999999998 1305.961 103.505 1215.006 137.30700000000002 1118.217 154.228 1044.408 217.21800000000002 962.924 286.758 893.487 373.762 867.509 477.688 840.14 587.176 842.06 709.369 896.702 808.116 950.009 904.45 1053.458 962.754 1156.856 1000.581 1247.347 1033.686 1343.645 1007.323 1440 1006.874" fill="#33b1ff"></path></g><defs><mask id="SvgjsMask1001"><rect width="1440" height="560" fill="#ffffff"></rect></mask></defs></svg>