<svg width="20" height="20" viewBox="0 0 20 20" fill="none" xmlns="http://www.w3.org/2000/svg">
<path d="M4.58325 7.34029C4.58325 7.34029 4.16659 8.8426 4.16659 11.25C4.16659 13.6574 4.49066 15.7639 4.81473 16.0648C5.13881 16.3658 7.40733 16.6667 9.99992 16.6667C12.5925 16.6667 14.861 16.3658 15.1851 16.0648C15.5092 15.7639 15.8333 13.6574 15.8333 11.25C15.8333 8.8426 15.4166 7.34029 15.4166 7.34029M4.58325 7.34029C5.54824 7.42773 7.65843 7.5 9.99992 7.5C12.3414 7.5 14.4516 7.42773 15.4166 7.34029M4.58325 7.34029C4.32713 7.31708 4.15168 7.29279 4.07399 7.26852C3.70362 7.15278 3.33325 6.34259 3.33325 5.41667C3.33325 4.49074 3.70362 3.68056 4.07399 3.56481C4.44436 3.44907 7.03696 3.33333 9.99992 3.33333C12.9629 3.33333 15.5555 3.44907 15.9258 3.56481C16.2962 3.68056 16.6666 4.49074 16.6666 5.41667C16.6666 6.34259 16.2962 7.15278 15.9258 7.26852C15.8482 7.29279 15.6727 7.31708 15.4166 7.34029M8.33325 10.8333C8.33325 10.8333 8.74992 10.4167 9.99992 10.4167C11.2499 10.4167 11.6666 10.8333 11.6666 10.8333" stroke="white" stroke-width="1.5" stroke-linecap="round" stroke-linejoin="round"/>
</svg>
